<svg width="100" height="100" viewBox="0 0 100 100" fill="none" xmlns="http://www.w3.org/2000/svg">
<g id="canva">
<g id="canva_2">
<path id="Vector" d="M50 99.9996C77.6142 99.9996 100 77.6139 100 49.9996C100 22.3854 77.6142 -0.000366211 50 -0.000366211C22.3858 -0.000366211 0 22.3854 0 49.9996C0 77.6139 22.3858 99.9996 50 99.9996Z" fill="#7D2AE7"/>
<path id="Vector_2" d="M50 99.9996C77.6142 99.9996 100 77.6139 100 49.9996C100 22.3854 77.6142 -0.000366211 50 -0.000366211C22.3858 -0.000366211 0 22.3854 0 49.9996C0 77.6139 22.3858 99.9996 50 99.9996Z" fill="url(#paint0_radial_790_414)"/>
<path id="Vector_3" d="M50 99.9996C77.6142 99.9996 100 77.6139 100 49.9996C100 22.3854 77.6142 -0.000366211 50 -0.000366211C22.3858 -0.000366211 0 22.3854 0 49.9996C0 77.6139 22.3858 99.9996 50 99.9996Z" fill="url(#paint1_radial_790_414)"/>
<path id="Vector_4" d="M50 99.9996C77.6142 99.9996 100 77.6139 100 49.9996C100 22.3854 77.6142 -0.000366211 50 -0.000366211C22.3858 -0.000366211 0 22.3854 0 49.9996C0 77.6139 22.3858 99.9996 50 99.9996Z" fill="url(#paint2_radial_790_414)"/>
<path id="Vector_5" d="M50 99.9996C77.6142 99.9996 100 77.6139 100 49.9996C100 22.3854 77.6142 -0.000366211 50 -0.000366211C22.3858 -0.000366211 0 22.3854 0 49.9996C0 77.6139 22.3858 99.9996 50 99.9996Z" fill="url(#paint3_radial_790_414)"/>
<path id="Vector_6" d="M71.5863 60.2564C71.1736 60.2564 70.8105 60.6048 70.4326 61.3659C66.1652 70.019 58.7947 76.1417 50.2655 76.1417C40.4034 76.1417 34.2961 67.239 34.2961 54.9401C34.2961 34.1067 45.9039 22.0613 56.0994 22.0613C60.8636 22.0613 63.7731 25.0553 63.7731 29.8197C63.7731 35.4744 60.5605 38.4684 60.5605 40.4627C60.5605 41.3579 61.1173 41.8999 62.2215 41.8999C66.6578 41.8999 71.8647 36.8023 71.8647 29.6009C71.8647 22.6183 65.7873 17.4858 55.5921 17.4858C38.7423 17.4858 23.7676 33.1071 23.7676 54.7211C23.7676 71.4517 33.3214 82.5075 48.0624 82.5075C63.7084 82.5075 72.7552 66.9406 72.7552 61.888C72.7552 60.769 72.1831 60.2564 71.5863 60.2564Z" fill="white"/>
</g>
</g>
<defs>
<radialGradient id="paint0_radial_790_414" cx="0" cy="0" r="1" gradientUnits="userSpaceOnUse" gradientTransform="translate(19.3162 88.6318) rotate(-49.416) scale(77.3416)">
<stop stop-color="#6420FF"/>
<stop offset="1" stop-color="#6420FF" stop-opacity="0"/>
</radialGradient>
<radialGradient id="paint1_radial_790_414" cx="0" cy="0" r="1" gradientUnits="userSpaceOnUse" gradientTransform="translate(26.4735 11.3678) rotate(54.703) scale(87.2168)">
<stop stop-color="#00C4CC"/>
<stop offset="1" stop-color="#00C4CC" stop-opacity="0"/>
</radialGradient>
<radialGradient id="paint2_radial_790_414" cx="0" cy="0" r="1" gradientUnits="userSpaceOnUse" gradientTransform="translate(19.3158 88.6312) rotate(-45.1954) scale(76.4053 35.1398)">
<stop stop-color="#6420FF"/>
<stop offset="1" stop-color="#6420FF" stop-opacity="0"/>
</radialGradient>
<radialGradient id="paint3_radial_790_414" cx="0" cy="0" r="1" gradientUnits="userSpaceOnUse" gradientTransform="translate(40.8947 13.4733) rotate(66.5198) scale(78.7295 131.889)">
<stop stop-color="#00C4CC" stop-opacity="0.725916"/>
<stop offset="0.0001" stop-color="#00C4CC"/>
<stop offset="1" stop-color="#00C4CC" stop-opacity="0"/>
</radialGradient>
</defs>
</svg>
