<svg width="100" height="100" viewBox="0 0 100 100" fill="none" xmlns="http://www.w3.org/2000/svg">
<g id="cloudflare" clip-path="url(#clip0_790_479)">
<g id="cloudflare_2">
<path id="Vector" d="M79.0458 46.295L76.9712 45.4653C67.2208 67.4044 28.4321 54.0665 26.0977 60.5931C25.7087 65.0017 47.2801 61.4313 62.7016 62.1786C67.4044 62.4063 69.7626 65.9564 67.7657 71.7427L71.6989 71.7548C76.236 57.6106 90.7157 64.829 91.3208 60.161C90.3266 57.0919 74.6801 60.161 79.0458 46.295Z" fill="white"/>
<path id="Vector_2" d="M68.8797 69.3239C69.502 67.2497 69.2945 65.1747 68.2574 63.9298C67.2199 62.6849 65.7676 61.8556 63.9004 61.6478L27.8008 61.2325C27.5934 61.2325 27.3859 61.0255 27.1785 61.0255C26.9711 60.8177 26.9711 60.6103 27.1785 60.4028C27.3859 59.988 27.5934 59.7802 28.0082 59.7802L64.3152 59.3653C68.6723 59.1583 73.2367 55.631 74.8961 51.4817L76.9711 46.0876C76.9711 45.8798 77.1785 45.6724 76.9711 45.4649C74.6887 34.8841 65.1453 27.0005 53.9418 27.0005C43.5684 27.0005 34.6473 33.6392 31.5352 42.9755C29.4605 41.5231 26.9711 40.6931 24.0664 40.9013C19.0871 41.3157 15.1453 45.4649 14.5227 50.4442C14.3152 51.6892 14.5227 52.9341 14.7305 54.1786C6.63906 54.386 0 61.0251 0 69.3239C0 70.1536 0 70.7763 0.207422 71.606C0.207422 72.0212 0.622266 72.2286 0.830078 72.2286H67.4273C67.8422 72.2286 68.2574 72.0216 68.2574 71.606L68.8797 69.3239Z" fill="#F4811F"/>
<path id="Vector_3" d="M80.2906 46.0876H79.2531C79.0457 46.0876 78.8383 46.2947 78.6309 46.5025L77.1785 51.4818C76.5563 53.556 76.7637 55.6314 77.8012 56.8759C78.8383 58.1209 80.2906 58.9501 82.1578 59.1583L89.8344 59.5732C90.0414 59.5732 90.2492 59.7802 90.4567 59.7802C90.6637 59.988 90.6637 60.1955 90.4567 60.4029C90.2492 60.8181 90.0418 61.0255 89.6266 61.0255L81.743 61.4404C77.386 61.6474 72.8219 65.1748 71.1621 69.324L70.7469 71.1912C70.5395 71.399 70.7469 71.8138 71.1621 71.8138H98.5481C98.9629 71.8138 99.1703 71.6064 99.1703 71.1916C99.5852 69.5314 100 67.6642 100 65.797C100 55.0087 91.0789 46.0876 80.2906 46.0876Z" fill="#FAAD3F"/>
</g>
</g>
<defs>
<clipPath id="clip0_790_479">
<rect width="100" height="100" fill="white" transform="translate(0 0.000488281)"/>
</clipPath>
</defs>
</svg>
