<svg width="100" height="100" viewBox="0 0 100 100" fill="none" xmlns="http://www.w3.org/2000/svg">
<g id="eslint">
<g id="eslint_2">
<path id="Vector" d="M30.455 37.4724L49.4277 26.5185C49.661 26.3837 49.9257 26.3127 50.1952 26.3127C50.4647 26.3127 50.7294 26.3837 50.9628 26.5185L69.9355 37.4724C70.1688 37.6072 70.3625 37.8009 70.4973 38.0343C70.632 38.2676 70.703 38.5323 70.7031 38.8017V60.7095C70.7031 61.2575 70.4101 61.7642 69.9355 62.0388L50.9628 72.9927C50.7294 73.1275 50.4647 73.1984 50.1952 73.1984C49.9257 73.1984 49.661 73.1275 49.4277 72.9927L30.455 62.0388C30.2216 61.904 30.0279 61.7103 29.8931 61.4769C29.7584 61.2436 29.6875 60.9789 29.6874 60.7095V38.8013C29.6878 38.2529 29.9803 37.7466 30.455 37.472" fill="#8080F2"/>
<path id="Vector_2" d="M99.3816 47.9603L76.6886 8.48096C75.8644 7.05362 74.3418 6.00049 72.6933 6.00049H27.3069C25.6584 6.00049 24.135 7.05362 23.3108 8.48096L0.618165 47.8732C-0.206055 49.301 -0.206055 51.1029 0.618165 52.5307L23.3108 91.6866C24.135 93.114 25.6584 93.8436 27.3069 93.8436H72.6929C74.3414 93.8436 75.8644 93.1358 76.6882 91.7081L99.3812 52.4885C100.206 51.0615 100.206 49.3877 99.3812 47.9603H99.3816ZM80.5906 66.9448C80.5906 67.5248 80.2414 68.0619 79.7382 68.3526L50.8323 85.0296C50.5834 85.1722 50.3016 85.2472 50.0147 85.2472C49.7279 85.2472 49.446 85.1722 49.1972 85.0296L20.269 68.3526C19.7663 68.0619 19.4143 67.5252 19.4143 66.9444V33.5896C19.4143 33.0087 19.7612 32.4724 20.2643 32.1818L49.1687 15.5044C49.4174 15.3616 49.6992 15.2864 49.986 15.2864C50.2729 15.2864 50.5547 15.3616 50.8034 15.5044L79.7332 32.1818C80.2367 32.4724 80.5906 33.0087 80.5906 33.5896V66.9444V66.9448Z" fill="#4B32C3"/>
</g>
</g>
</svg>
