<svg width="100" height="100" viewBox="0 0 100 100" fill="none" xmlns="http://www.w3.org/2000/svg">
<g id="json">
<g id="json_2">
<path id="Vector" d="M49.9152 74.438C72.0391 104.597 93.6902 66.02 93.6582 42.8208C93.6211 15.3927 65.8203 0.0629883 49.8973 0.0629883C24.3395 0.0625977 0 21.1849 0 50.0849C0 82.2075 27.9004 100 49.8973 100C44.9195 99.2837 28.3309 95.7294 28.1082 57.5212C27.9578 31.6798 36.5379 21.3552 49.8613 25.897C50.1598 26.0075 64.5574 31.6872 64.5574 50.2407C64.5574 68.7157 49.9152 74.4376 49.9152 74.4376V74.438Z" fill="url(#paint0_linear_790_1075)"/>
<path id="Vector_2" d="M49.8895 25.8757C35.2708 20.837 17.3625 32.8859 17.3625 57.0187C17.3625 96.4237 46.563 100 50.1028 100C75.6606 100 100 78.8776 100 49.978C100 17.8554 72.0997 0.0624441 50.1028 0.0624441C56.1954 -0.781305 82.9407 6.65619 82.9407 43.2101C82.9407 67.0483 62.9704 80.0257 49.9813 74.4811C49.6829 74.3706 35.2848 68.6909 35.2848 50.1374C35.2848 31.662 49.8895 25.8757 49.8895 25.8757Z" fill="url(#paint1_linear_790_1075)"/>
</g>
</g>
<defs>
<linearGradient id="paint0_linear_790_1075" x1="14.7896" y1="14.7908" x2="89.4888" y2="80.3971" gradientUnits="userSpaceOnUse">
<stop/>
<stop offset="1" stop-color="white"/>
</linearGradient>
<linearGradient id="paint1_linear_790_1075" x1="85.2377" y1="85.2373" x2="4.38663" y2="30.0248" gradientUnits="userSpaceOnUse">
<stop/>
<stop offset="1" stop-color="white"/>
</linearGradient>
</defs>
</svg>
