<svg width="106" height="100" viewBox="0 0 106 100" fill="none" xmlns="http://www.w3.org/2000/svg">
<g id="markdown">
<g id="markdown_2">
<path id="Vector" d="M8.0505 20.0005H97.9495C99.289 20.0005 100.574 20.5326 101.521 21.4797C102.468 22.4269 103 23.7115 103 25.051V74.5459C103 75.8854 102.468 77.17 101.521 78.1172C100.574 79.0643 99.289 79.5964 97.9495 79.5964H8.0505C6.71103 79.5964 5.42641 79.0643 4.47926 78.1172C3.53211 77.17 3 75.8854 3 74.5459V25.051C3 23.7115 3.53211 22.4269 4.47926 21.4797C5.42641 20.5326 6.71103 20.0005 8.0505 20.0005Z" stroke="black" stroke-width="5.05051"/>
<path id="Vector_2" d="M15.6262 66.9702V32.6268H25.7272L35.8282 45.253L45.9293 32.6268H56.0303V66.9702H45.9293V47.2732L35.8282 59.8995L25.7272 47.2732V66.9702H15.6262ZM78.7575 66.9702L63.606 50.3035H73.707V32.6268H83.808V50.3035H93.9091L78.7575 66.9702Z" fill="black"/>
</g>
</g>
</svg>
