<svg width="100" height="100" viewBox="0 0 100 100" fill="none" xmlns="http://www.w3.org/2000/svg">
<g id="netlify">
<g id="netlify_2">
<path id="Vector" d="M59.8014 64.7178L35.2764 59.5929C35.1737 59.7915 35.0595 59.9839 34.9342 60.1691L57.2608 92.7381L58.6077 91.3928L62.4061 67.7721C61.764 67.5009 61.1943 67.0835 60.7421 66.5532C60.2899 66.0228 59.9678 65.3942 59.8014 64.7174V64.7178ZM50.8547 32.6582C49.9359 34.0675 48.35 35.0003 46.5438 35.0003C46.2657 35.0003 45.9954 34.9722 45.7298 34.93L34.5452 52.4301L64.4267 39.571C64.4174 39.4507 64.3908 39.3382 64.3908 39.2147C64.3908 38.9632 64.4252 38.7194 64.4658 38.4788L50.8547 32.6586V32.6582ZM51.6672 29.4692L66.1455 35.6597C66.6068 35.2991 67.1345 35.0326 67.6986 34.8753L70.0782 20.0787L61.0123 11.0128L50.8078 26.9805C51.3079 27.7203 51.6043 28.5788 51.6672 29.4696V29.4692ZM82.0046 32.0051L72.9188 22.9177L70.9438 35.1863C71.4445 35.438 71.8942 35.7802 72.2704 36.1956L82.0046 32.0051ZM60.2358 61.4862C60.5913 60.8408 61.1021 60.294 61.722 59.8955C62.3419 59.4969 63.0513 59.2591 63.7861 59.2035L66.3954 42.974C66.1908 42.8381 66.0079 42.6756 65.8283 42.5084L35.7748 55.4426C35.8514 55.7566 35.9045 56.077 35.9295 56.4098L60.2358 61.4862ZM84.4795 34.4816L73.9672 39.005L99.9047 50.0942L99.9984 50.0005L84.4795 34.4816ZM65.6939 67.8209L62.5346 87.4628L80.8796 69.1178L67.6657 66.3584C67.159 67.0216 66.4756 67.5284 65.6939 67.8209ZM30.0359 62.771C29.3718 62.771 28.7359 62.6569 28.1406 62.455L22.0469 71.9912L19.6923 69.6381L25.4641 60.607C25.3213 60.4298 25.1883 60.245 25.0656 60.0535L14.6095 64.5553L12.1311 62.0769L23.5762 57.1504L2.88472 52.8317L0.0546866 50.0005L0.949985 49.1052L24.8109 54.0864C25.0853 53.5658 25.4367 53.0896 25.8531 52.6739L14.272 35.7816L16.6111 33.4425L28.7105 51.0927C29.145 50.9918 29.5894 50.9399 30.0355 50.938C30.5464 50.938 31.0417 51.0098 31.5151 51.1317L42.8372 33.416C41.9155 32.4598 41.4007 31.1832 41.4013 29.8551C41.4013 29.4489 41.4529 29.0551 41.5419 28.677L27.4172 22.638L29.8948 20.1599L43.2774 25.8833C43.9561 25.324 44.7672 24.9487 45.6328 24.7935C46.4984 24.6384 47.3893 24.7086 48.2199 24.9974L58.6589 8.65973L50 0.000488281L0 50.0005L50 100L54.9202 95.0803L32.4264 62.2644C31.6736 62.5981 30.8593 62.7707 30.0359 62.771ZM69.5782 43.6736L66.9236 60.1722C67.3875 60.545 67.7717 61.0073 68.0532 61.5316C68.3348 62.0559 68.508 62.6315 68.5626 63.2241L83.6296 66.3694L97.4262 52.5727L72.5235 41.9256C71.8109 42.8743 70.7522 43.5027 69.5782 43.674V43.6736Z" fill="#25C7B7"/>
</g>
</g>
</svg>
