<svg width="100" height="100" viewBox="0 0 100 100" fill="none" xmlns="http://www.w3.org/2000/svg">
<g id="rollup">
<g id="rollup_2" clip-path="url(#clip0_790_3328)">
<path id="Vector" d="M88.2594 32.9224C88.2594 27.0351 86.7176 21.5158 84.0017 16.7324C76.8003 9.32066 61.1358 7.60353 57.246 16.6973C53.251 26.0189 63.9568 36.3918 68.6352 35.5681C74.5925 34.5169 67.5838 20.8499 67.5838 20.8499C76.695 38.0213 74.5926 32.7648 58.1221 48.5343C41.6517 64.3038 24.8308 97.5775 22.3778 98.9793C22.2727 99.0494 22.1675 99.102 22.0448 99.1545H86.6474C87.7863 99.1545 88.5223 97.9455 88.0142 96.9293L71.1232 63.4978C70.7553 62.7794 71.018 61.8858 71.7189 61.4828C81.6012 55.8058 88.2594 45.1525 88.2594 32.9224Z" fill="url(#paint0_linear_790_3328)"/>
<path id="Vector_2" d="M88.2594 32.9224C88.2594 27.0351 86.7176 21.5158 84.0017 16.7324C76.8003 9.32066 61.1358 7.60353 57.246 16.6973C53.251 26.0189 63.9568 36.3918 68.6352 35.5681C74.5925 34.5169 67.5838 20.8499 67.5838 20.8499C76.695 38.0213 74.5926 32.7648 58.1221 48.5343C41.6517 64.3038 24.8308 97.5775 22.3778 98.9793C22.2727 99.0494 22.1675 99.102 22.0448 99.1545H86.6474C87.7863 99.1545 88.5223 97.9455 88.0142 96.9293L71.1232 63.4978C70.7553 62.7794 71.018 61.8858 71.7189 61.4828C81.6012 55.8058 88.2594 45.1525 88.2594 32.9224Z" fill="url(#paint1_linear_790_3328)"/>
<path id="Vector_3" d="M22.3777 98.9795C24.8309 97.5778 41.6517 64.2865 58.1221 48.517C74.5925 32.7474 76.6951 38.0039 67.5839 20.8326C67.5839 20.8326 32.7156 69.7183 20.1 93.8983" fill="url(#paint2_linear_790_3328)"/>
<path id="Vector_4" d="M27.2839 55.175C50.8331 11.8789 53.9169 7.51596 66.1821 7.51596C72.6301 7.51596 79.1306 10.4246 83.3359 15.5935C77.6063 6.35953 67.4611 0.174358 55.8442 -0.000854492H15.8422C15.0011 -0.000854492 14.3177 0.682495 14.3177 1.52353V82.1585C16.7007 76.0084 20.7482 67.2125 27.2839 55.175Z" fill="url(#paint3_linear_790_3328)"/>
<path id="Vector_5" d="M58.1221 48.5169C41.6516 64.2865 24.8308 97.5778 22.3778 98.9795C19.9248 100.381 15.8071 100.556 13.6169 98.1034C11.2865 95.4927 7.65953 91.2699 27.2839 55.1751C50.833 11.879 53.9169 7.51611 66.1821 7.51611C72.6301 7.51611 79.1306 10.4247 83.3359 15.5937C83.5636 15.9617 83.7914 16.347 84.0193 16.7325C76.8178 9.32086 61.1534 7.60373 57.2635 16.6975C53.2685 26.019 63.9744 36.3919 68.6526 35.5684C74.61 34.5171 67.6014 20.8502 67.6014 20.8502C76.6951 38.0039 74.5925 32.7474 58.1221 48.5169Z" fill="url(#paint4_linear_790_3328)"/>
<path id="Vector_6" opacity="0.3" d="M29.2113 57.1026C52.7604 13.8064 55.8443 9.44351 68.1095 9.44351C73.4185 9.44351 78.7626 11.4235 82.8278 14.9979C78.6225 10.1969 72.3848 7.51611 66.1821 7.51611C53.9169 7.51611 50.833 11.879 27.2839 55.1751C7.65953 91.2699 11.2865 95.4927 13.6169 98.1034C13.9499 98.4714 14.3353 98.7868 14.7383 99.0497C12.6883 96.0709 11.7771 89.1498 29.2113 57.1026Z" fill="url(#paint5_linear_790_3328)"/>
</g>
</g>
<defs>
<linearGradient id="paint0_linear_790_3328" x1="39.8064" y1="53.2565" x2="66.7899" y2="59.5644" gradientUnits="userSpaceOnUse">
<stop stop-color="#FF6533"/>
<stop offset="0.157" stop-color="#FF5633"/>
<stop offset="0.434" stop-color="#FF4333"/>
<stop offset="0.714" stop-color="#FF3733"/>
<stop offset="1" stop-color="#FF3333"/>
</linearGradient>
<linearGradient id="paint1_linear_790_3328" x1="35.5861" y1="44.3119" x2="83.9462" y2="81.8084" gradientUnits="userSpaceOnUse">
<stop stop-color="#BF3338"/>
<stop offset="1" stop-color="#FF3333"/>
</linearGradient>
<linearGradient id="paint2_linear_790_3328" x1="37.1636" y1="51.6983" x2="44.1724" y2="59.0574" gradientUnits="userSpaceOnUse">
<stop stop-color="#FF6533"/>
<stop offset="0.157" stop-color="#FF5633"/>
<stop offset="0.434" stop-color="#FF4333"/>
<stop offset="0.714" stop-color="#FF3733"/>
<stop offset="1" stop-color="#FF3333"/>
</linearGradient>
<linearGradient id="paint3_linear_790_3328" x1="49.9064" y1="64.3664" x2="47.8037" y2="34.229" gradientUnits="userSpaceOnUse">
<stop stop-color="#FF6533"/>
<stop offset="0.157" stop-color="#FF5633"/>
<stop offset="0.434" stop-color="#FF4333"/>
<stop offset="0.714" stop-color="#FF3733"/>
<stop offset="1" stop-color="#FF3333"/>
</linearGradient>
<linearGradient id="paint4_linear_790_3328" x1="40.7975" y1="51.1818" x2="50.753" y2="57.9517" gradientUnits="userSpaceOnUse">
<stop stop-color="#FBB040"/>
<stop offset="1" stop-color="#FB8840"/>
</linearGradient>
<linearGradient id="paint5_linear_790_3328" x1="50.9965" y1="12.9054" x2="40.8339" y2="124.694" gradientUnits="userSpaceOnUse">
<stop stop-color="white"/>
<stop offset="1" stop-color="white" stop-opacity="0"/>
</linearGradient>
<clipPath id="clip0_790_3328">
<rect width="100" height="100" fill="white" transform="translate(0 -0.000854492)"/>
</clipPath>
</defs>
</svg>
