<svg width="100" height="100" viewBox="0 0 100 100" fill="none" xmlns="http://www.w3.org/2000/svg">
<g id="sass">
<g id="sass_2">
<path id="Vector" d="M86.1078 56.1116C82.6191 56.1299 79.5871 56.9701 77.0482 58.2121C76.1167 56.3673 75.1851 54.7235 75.0207 53.5179C74.8381 52.1115 74.6189 51.253 74.8381 49.5726C75.0573 47.8922 76.0436 45.4994 76.0253 45.3168C76.0071 45.1341 75.8061 44.2757 73.797 44.2574C71.7878 44.2391 70.0526 44.641 69.8516 45.1707C69.6507 45.7004 69.2671 46.9059 69.0114 48.1479C68.6644 49.9744 64.993 56.4952 62.8925 59.9108C62.2167 58.5774 61.6322 57.4085 61.5043 56.4769C61.3217 55.0705 61.1025 54.212 61.3217 52.5316C61.5409 50.8512 62.5272 48.4584 62.5089 48.2758C62.4907 48.0931 62.2898 47.2346 60.2806 47.2164C58.2714 47.1981 56.5362 47.5999 56.3352 48.1296C56.1343 48.6593 55.9151 49.9014 55.495 51.1069C55.0749 52.3124 50.1981 63.1986 48.9195 66.0115C48.2619 67.4544 47.6957 68.6051 47.2939 69.3906C47.2939 69.3906 47.2756 69.4454 47.2208 69.5367C46.8738 70.2125 46.6729 70.5778 46.6729 70.5778C46.6729 70.5778 46.6729 70.5778 46.6729 70.5961C46.3989 71.0892 46.1066 71.5459 45.9605 71.5459C45.8509 71.5459 45.65 70.2308 45.997 68.4408C46.7276 64.6598 48.4629 58.7784 48.4446 58.5774C48.4446 58.4679 48.7734 57.445 47.3121 56.9153C45.8874 56.3856 45.376 57.2623 45.2482 57.2623C45.1203 57.2623 45.029 57.5729 45.029 57.5729C45.029 57.5729 46.6181 50.9608 41.9969 50.9608C39.111 50.9608 35.1291 54.1207 33.1565 56.9701C31.9144 57.6459 29.2659 59.0889 26.4348 60.6414C25.3571 61.2442 24.243 61.847 23.2018 62.4132C23.1288 62.3401 23.0557 62.2488 22.9826 62.1757C17.3934 56.2029 7.05523 51.9836 7.4936 43.9651C7.65799 41.0427 8.66258 33.3712 27.3481 24.0559C42.7275 16.4757 54.9653 18.5762 57.0841 23.2339C60.1162 29.8825 50.5269 42.2299 34.636 44.0199C28.5719 44.6958 25.3937 42.3578 24.59 41.481C23.7498 40.5678 23.6219 40.513 23.3114 40.6956C22.8 40.9696 23.1288 41.7916 23.3114 42.2665C23.7863 43.5085 25.7407 45.7003 29.0468 46.778C31.9692 47.7278 39.0745 48.2575 47.6774 44.9332C57.3033 41.2071 64.8286 30.8506 62.6185 22.1745C60.4084 13.3706 45.7961 10.4664 31.9692 15.3798C23.7498 18.3023 14.8363 22.9051 8.42513 28.8962C0.808465 36.0197 -0.397049 42.2117 0.096116 44.8053C1.86786 54.0111 14.5623 60.0021 19.6401 64.4406C19.3844 64.5868 19.1469 64.7146 18.946 64.8242C16.4071 66.0845 6.72645 71.144 4.31542 76.4958C1.57561 82.5599 4.75379 86.9071 6.85431 87.4916C13.3751 89.2998 20.0784 86.0486 23.6767 80.6786C27.275 75.3085 26.8366 68.3312 25.1745 65.1347C25.1562 65.0982 25.138 65.0617 25.1014 65.0251C25.759 64.6416 26.4348 64.2397 27.0924 63.8561C28.3892 63.089 29.6678 62.3766 30.7637 61.7922C30.1427 63.4908 29.686 65.5183 29.4669 68.4408C29.1929 71.8746 30.5993 76.3314 32.4441 78.0849C33.2661 78.852 34.2341 78.8703 34.8551 78.8703C37.0105 78.8703 37.9785 77.0803 39.0562 74.9615C40.3713 72.3678 41.5585 69.354 41.5585 69.354C41.5585 69.354 40.079 77.5004 44.0974 77.5004C45.5587 77.5004 47.0382 75.6008 47.6957 74.6327C47.6957 74.651 47.6957 74.651 47.6957 74.651C47.6957 74.651 47.7322 74.5962 47.8053 74.4683C47.9514 74.2309 48.0428 74.0848 48.0428 74.0848C48.0428 74.0848 48.0428 74.0665 48.0428 74.0482C48.6273 73.0254 49.9424 70.7057 51.8968 66.8517C54.4174 61.8835 56.8467 55.6733 56.8467 55.6733C56.8467 55.6733 57.0659 57.1893 57.8147 59.7099C58.2531 61.1894 59.1664 62.815 59.897 64.3858C59.3125 65.2078 58.9472 65.6644 58.9472 65.6644C58.9472 65.6644 58.9472 65.6644 58.9655 65.6827C58.4906 66.3037 57.9791 66.9795 57.4129 67.6371C55.422 70.0116 53.0475 72.7331 52.7187 73.5185C52.3351 74.4501 52.4265 75.1259 53.1571 75.6739C53.6868 76.0757 54.6366 76.1305 55.6046 76.0757C57.3946 75.9478 58.6549 75.5095 59.276 75.2355C60.244 74.8884 61.3765 74.3587 62.4359 73.5733C64.3903 72.1304 65.5775 70.0664 65.4679 67.3448C65.4131 65.8471 64.92 64.3493 64.3172 62.9429C64.4999 62.6872 64.6643 62.4314 64.8469 62.1757C67.9338 57.6642 70.3265 52.7143 70.3265 52.7143C70.3265 52.7143 70.5457 54.2303 71.2946 56.7509C71.6599 58.0295 72.4088 59.4177 73.0663 60.7693C70.1621 63.1255 68.3721 65.8653 67.7328 67.6553C66.5821 70.9796 67.4771 72.4774 69.1758 72.8244C69.943 72.9888 71.0389 72.6235 71.8426 72.2765C72.8654 71.9477 74.0709 71.3815 75.2216 70.5413C77.176 69.0983 79.0574 67.0891 78.9478 64.3676C78.893 63.1255 78.5642 61.9017 78.1076 60.7145C80.5734 59.6916 83.7516 59.1254 87.8065 59.6003C96.5008 60.6232 98.2178 66.048 97.889 68.3312C97.5602 70.6143 95.7337 71.8564 95.1309 72.24C94.5282 72.6235 94.3273 72.7514 94.382 73.0254C94.4551 73.4272 94.7474 73.4089 95.2588 73.3359C95.9711 73.208 99.8251 71.4911 99.9895 67.29C100.264 61.92 95.1492 56.0568 86.1078 56.1116ZM19.0373 78.7242C16.1514 81.8658 12.133 83.0531 10.3978 82.0485C8.53473 80.9708 9.26534 76.3314 12.8088 73.0071C14.9641 70.9796 17.7405 69.0983 19.5853 67.9476C20.0054 67.6919 20.6264 67.3266 21.3753 66.8699C21.5032 66.7969 21.5762 66.7603 21.5762 66.7603C21.7223 66.669 21.8685 66.5777 22.0146 66.4864C23.3114 71.2354 22.0694 75.4181 19.0373 78.7242ZM40.0425 64.4406C39.0379 66.8882 36.9374 73.1532 35.6588 72.8062C34.5629 72.5139 33.8871 67.7649 35.4396 63.0707C36.2251 60.7145 37.8872 57.9016 38.8553 56.8057C40.4261 55.0522 42.1613 54.4677 42.5814 55.1801C43.1111 56.1116 40.6635 62.9063 40.0425 64.4406ZM57.3764 72.7331C56.9563 72.9523 56.5544 73.0984 56.3718 72.9888C56.2439 72.9158 56.5544 72.6235 56.5544 72.6235C56.5544 72.6235 58.728 70.2856 59.5865 69.2262C60.0796 68.6051 60.6641 67.8745 61.2852 67.0526C61.2852 67.1256 61.2852 67.217 61.2852 67.29C61.2852 70.0846 58.5819 71.966 57.3764 72.7331ZM70.7466 69.6828C70.4361 69.4636 70.4909 68.733 71.532 66.4498C71.9339 65.5548 72.8837 64.0571 74.5093 62.6141C74.692 63.1986 74.8198 63.7648 74.8016 64.2945C74.7833 67.8197 72.2627 69.1348 70.7466 69.6828Z" fill="#CD6799"/>
</g>
</g>
</svg>
